# xmcd
#
# Track frame offsets:
#	150
#	10210
#	22159
#	32746
#	43798
#	53913
#	66027
#	77431
#	90368
#	99335
#	110101
#	119223
#	128960
#	139120
#	147983
#	158422
#	170377
#	181499
#	192351
#	207178
#
# Disc length: 2930 seconds
#
# Revision: 2
# Processed by: cddbd v1.5.2PL0 Copyright (c) Steve Scherf et al.
# Submitted via: EasyCDDAExtractor 10.2.0.1
#
DISCID=170b7014
DTITLE=Daniel O'Donnell - Teenage Dreams
DYEAR=2005
DGENRE=Country
TTITLE0=All My Loving
TTITLE1=Calendar Girl
TTITLE2=But I Do
TTITLE3=Good Luck Charm
TTITLE4=Heartbeat
TTITLE5=Dream Lover
TTITLE6=Poetry In Motion
TTITLE7=My Special Angel
TTITLE8=Be My Guest
TTITLE9=Lets Twist Again
TTITLE10=Ole Man Trouble
TTITLE11=Only Sixteen
TTITLE12=And Then I Kissed Her
TTITLE13=Da Doo Ron Ron
TTITLE14=You're Sixteen
TTITLE15=With A Little Help From My Friends
TTITLE16=Walk On By
TTITLE17=Little Arrows
TTITLE18=Words
TTITLE19=Rhythm Of The Rain
EXTD=
EXTT0=
EXTT1=
EXTT2=
EXTT3=
EXTT4=
EXTT5=
EXTT6=
EXTT7=
EXTT8=
EXTT9=
EXTT10=
EXTT11=
EXTT12=
EXTT13=
EXTT14=
EXTT15=
EXTT16=
EXTT17=
EXTT18=
EXTT19=
PLAYORDER=
